<?xml version="1.0" encoding="UTF-8" standalone="no"?>
<!-- Created with Inkscape (http://www.inkscape.org/) -->

<svg
   width="512.0px"
   height="512.0px"
   viewBox="0 0 512.0 512.0"
   version="1.1"
   id="SVGRoot"
   sodipodi:docname="HT-logo.svg"
   inkscape:version="1.1 (c68e22c387, 2021-05-23)"
   inkscape:export-filename="C:\Users\jhxua\Documents\HIWS\HT-logo.png"
   inkscape:export-xdpi="96"
   inkscape:export-ydpi="96"
   xmlns:inkscape="http://www.inkscape.org/namespaces/inkscape"
   xmlns:sodipodi="http://sodipodi.sourceforge.net/DTD/sodipodi-0.dtd"
   xmlns="http://www.w3.org/2000/svg"
   xmlns:svg="http://www.w3.org/2000/svg">
  <sodipodi:namedview
     id="namedview838"
     pagecolor="#ffffff"
     bordercolor="#666666"
     borderopacity="1.0"
     inkscape:pageshadow="2"
     inkscape:pageopacity="0.0"
     inkscape:pagecheckerboard="0"
     inkscape:document-units="px"
     showgrid="true"
     inkscape:zoom="0.5"
     inkscape:cx="247"
     inkscape:cy="179"
     inkscape:window-width="1280"
     inkscape:window-height="657"
     inkscape:window-x="-8"
     inkscape:window-y="-8"
     inkscape:window-maximized="1"
     inkscape:current-layer="layer1">
    <inkscape:grid
       type="xygrid"
       id="grid901" />
  </sodipodi:namedview>
  <defs
     id="defs833" />
  <g
     inkscape:label="Layer 1"
     inkscape:groupmode="layer"
     id="layer1">
    <rect
       style="fill:#64a82c;fill-opacity:1;stroke:none;stroke-width:0.43855;-inkscape-stroke:none;stop-color:#000000"
       id="rect1069"
       width="512"
       height="512"
       x="0"
       y="0" />
    <path
       id="path0-6"
       d="m 97.778379,169.92807 -19.39423,19.51218 v 86.13217 86.13196 h 23.588411 23.58837 l 0.1183,-42.98495 0.1183,-42.98487 h 44.00564 44.00572 l 0.11829,42.98487 0.1183,42.98495 h 23.58841 23.58837 v -83.12085 -83.12082 l 3.59188,-3.52954 3.59195,-3.52959 h 21.11705 c 20.41395,0 21.13297,0.0355 21.58655,0.87833 0.319,0.59499 0.46938,28.39284 0.46938,86.65047 v 85.77249 h 23.59075 23.59067 v -86.37472 c 0,-78.34493 0.0711,-86.40089 0.7183,-86.6504 0.39447,-0.15167 10.51261,-0.27606 22.48366,-0.27606 h 21.76698 l 14.94383,-14.9506 14.94259,-14.95163 v -4.10228 -4.1035 h -90.39537 -90.39425 l -19.38973,19.39435 -19.38867,19.39424 -0.1183,22.91016 -0.1183,22.91015 -40.60312,0.12356 -40.6032,0.12196 -3.14052,6.35467 c -2.06873,4.18624 -3.26646,6.15637 -3.50907,5.77528 -0.20296,-0.32001 -0.37228,-22.27167 -0.37568,-48.78286 l -0.008,-48.20206 -4.19637,0.0594 -4.19645,0.0594 -19.394232,19.51218"
       stroke="none"
       fill="#fbfbfb"
       fill-rule="evenodd"
       style="stroke-width:1.13417" />
  </g>
</svg>
