<svg id="svg" version="1.1" xmlns="http://www.w3.org/2000/svg" xmlns:xlink="http://www.w3.org/1999/xlink" width="400" height="400" viewBox="0, 0, 400,400"><g id="svgg"><path id="path0" d="M59.900 124.110 L 42.800 141.314 42.800 217.257 L 42.800 293.200 63.598 293.200 L 84.396 293.200 84.498 255.300 L 84.600 217.400 123.400 217.400 L 162.200 217.400 162.302 255.300 L 162.404 293.200 183.202 293.200 L 204.000 293.200 204.000 219.912 L 204.000 146.624 207.167 143.512 L 210.334 140.400 228.953 140.400 C 246.952 140.400,247.586 140.426,247.986 141.174 C 248.267 141.699,248.400 166.208,248.400 217.574 L 248.400 293.200 269.200 293.200 L 290.000 293.200 290.000 217.043 C 290.000 147.966,290.059 140.863,290.633 140.643 C 290.981 140.509,299.902 140.400,310.457 140.400 L 329.649 140.400 342.825 127.218 L 356.000 114.035 356.000 110.418 L 356.000 106.800 276.298 106.800 L 196.597 106.800 179.501 123.900 L 162.406 141.000 162.303 161.200 L 162.200 181.400 126.400 181.509 L 90.600 181.617 87.831 187.220 C 86.007 190.911,84.951 192.648,84.737 192.312 C 84.558 192.030,84.409 172.675,84.406 149.300 L 84.400 106.800 80.700 106.853 L 77.000 106.906 59.900 124.110 " stroke="none" fill="#fbfbfb" fill-rule="evenodd"></path><path id="path1" d="M0.000 200.000 L 0.000 400.000 200.000 400.000 L 400.000 400.000 400.000 200.000 L 400.000 0.000 200.000 0.000 L 0.000 0.000 0.000 200.000 M84.801 149.100 L 84.801 191.800 87.424 186.500 L 90.047 181.200 125.824 181.200 L 161.600 181.200 161.600 160.898 L 161.600 140.597 178.703 123.497 L 195.805 106.398 276.203 106.499 L 356.600 106.600 356.716 110.382 L 356.832 114.164 343.118 127.882 L 329.404 141.600 310.103 141.600 L 290.802 141.600 290.701 217.500 L 290.600 293.400 269.100 293.503 L 247.600 293.607 247.600 217.603 L 247.600 141.600 228.771 141.600 L 209.943 141.600 207.371 144.184 L 204.800 146.768 204.800 220.184 L 204.800 293.600 183.200 293.600 L 161.600 293.600 161.600 255.600 L 161.600 217.600 123.200 217.600 L 84.800 217.600 84.800 255.600 L 84.800 293.600 63.600 293.600 L 42.400 293.600 42.400 217.102 L 42.400 140.603 59.498 123.502 L 76.597 106.400 80.698 106.400 L 84.800 106.400 84.801 149.100 " stroke="none" fill="#5cac1c" fill-rule="evenodd"></path><path id="path2" d="M78.700 106.695 C 79.855 106.776,81.745 106.776,82.900 106.695 C 84.055 106.614,83.110 106.548,80.800 106.548 C 78.490 106.548,77.545 106.614,78.700 106.695 M178.999 123.699 L 161.800 141.000 179.002 123.900 L 196.203 106.800 276.088 106.800 L 355.972 106.800 356.109 110.900 L 356.246 115.000 356.223 110.800 L 356.200 106.600 276.199 106.499 L 196.198 106.398 178.999 123.699 M42.596 217.000 C 42.596 259.020,42.643 276.269,42.700 255.332 C 42.757 234.394,42.757 200.014,42.700 178.932 C 42.643 157.849,42.596 174.980,42.596 217.000 M207.453 143.672 L 204.600 146.543 207.469 143.864 L 210.338 141.184 229.169 141.292 C 239.526 141.352,248.000 141.265,248.000 141.100 C 248.000 140.935,239.519 140.800,229.153 140.800 L 210.305 140.800 207.453 143.672 M290.400 141.100 C 290.400 141.373,305.209 141.367,322.600 141.089 C 326.340 141.029,320.625 140.939,309.900 140.890 C 299.175 140.840,290.400 140.935,290.400 141.100 M204.499 219.867 C 204.420 278.031,204.297 293.175,203.900 293.335 C 203.508 293.493,203.511 293.544,203.913 293.568 C 204.809 293.624,204.807 293.839,204.702 219.600 L 204.598 146.600 204.499 219.867 " stroke="none" fill="#ffffff" fill-rule="evenodd"></path><path id="path3" d="M59.398 123.700 L 42.200 141.000 59.500 123.802 C 75.580 107.817,76.980 106.400,76.698 106.400 C 76.642 106.400,68.857 114.185,59.398 123.700 M178.695 123.505 L 161.593 140.611 161.700 161.005 L 161.807 181.400 161.904 161.002 L 162.000 140.603 179.098 123.502 C 188.502 114.096,196.107 106.400,195.997 106.400 C 195.887 106.400,188.101 114.097,178.695 123.505 M356.397 110.518 L 356.595 114.600 356.713 110.836 C 356.778 108.766,356.690 106.929,356.516 106.754 C 356.342 106.579,356.289 108.273,356.397 110.518 M330.272 140.300 C 329.630 140.942,327.951 141.017,310.086 141.200 L 290.600 141.400 290.400 217.462 C 290.290 259.296,290.335 293.440,290.500 293.338 C 290.665 293.236,290.800 259.053,290.800 217.376 L 290.800 141.600 310.130 141.600 L 329.461 141.600 330.400 140.600 C 331.459 139.472,331.351 139.220,330.272 140.300 M228.999 141.498 L 247.598 141.608 247.701 217.704 L 247.803 293.800 247.802 217.600 L 247.800 141.400 229.100 141.394 L 210.400 141.388 228.999 141.498 M161.792 255.600 C 161.792 276.610,161.841 285.205,161.900 274.700 C 161.959 264.195,161.959 247.005,161.900 236.500 C 161.841 225.995,161.792 234.590,161.792 255.600 " stroke="none" fill="#ffffff" fill-rule="evenodd"></path><path id="path4" d="M59.641 123.836 C 50.314 133.166,42.826 140.800,43.003 140.800 C 43.425 140.800,76.977 107.243,76.764 107.034 C 76.674 106.945,68.968 114.506,59.641 123.836 M84.504 149.200 C 84.415 190.463,84.504 194.124,85.537 191.711 C 85.977 190.684,85.967 190.659,85.408 191.374 C 84.868 192.066,84.793 187.630,84.700 149.374 L 84.596 106.600 84.504 149.200 M179.098 123.902 L 162.000 141.003 162.000 161.100 L 162.000 181.196 126.500 181.301 L 91.000 181.406 126.600 181.403 L 162.200 181.400 162.303 161.200 L 162.406 141.000 179.501 123.900 C 188.904 114.495,196.507 106.800,196.397 106.800 C 196.287 106.800,188.502 114.496,179.098 123.902 M342.600 127.411 L 329.800 140.347 310.200 140.477 L 290.600 140.608 310.202 140.704 L 329.805 140.800 343.000 127.600 C 350.257 120.340,356.016 114.417,355.798 114.438 C 355.579 114.458,349.640 120.296,342.600 127.411 M210.262 140.700 C 210.093 140.973,224.338 140.967,241.200 140.688 C 244.830 140.628,239.396 140.539,229.124 140.490 C 218.852 140.440,210.364 140.535,210.262 140.700 M290.196 217.000 C 290.196 259.020,290.243 276.269,290.300 255.332 C 290.357 234.394,290.357 200.014,290.300 178.932 C 290.243 157.849,290.196 174.980,290.196 217.000 M206.666 143.961 L 204.000 146.722 204.098 220.061 L 204.196 293.400 204.398 219.912 L 204.600 146.423 207.188 143.812 C 208.612 142.375,209.677 141.200,209.554 141.200 C 209.432 141.200,208.132 142.442,206.666 143.961 M248.198 217.500 L 248.200 293.400 268.900 293.405 L 289.600 293.411 269.001 293.302 L 248.402 293.193 248.299 217.396 L 248.197 141.600 248.198 217.500 M89.214 183.574 C 88.707 184.521,88.684 184.919,89.152 184.630 C 89.505 184.412,90.055 182.800,89.777 182.800 C 89.695 182.800,89.442 183.148,89.214 183.574 M87.214 187.574 C 86.707 188.521,86.684 188.919,87.152 188.630 C 87.505 188.412,88.055 186.800,87.777 186.800 C 87.695 186.800,87.442 187.148,87.214 187.574 M84.669 217.465 C 84.521 217.612,84.400 234.712,84.400 255.463 L 84.400 293.193 63.700 293.302 L 43.000 293.411 63.800 293.405 L 84.600 293.400 84.702 255.500 L 84.804 217.600 123.400 217.600 L 161.996 217.600 162.098 255.500 L 162.200 293.400 182.900 293.405 L 203.600 293.411 183.002 293.302 L 162.404 293.193 162.302 255.296 L 162.200 217.400 123.569 217.298 C 102.321 217.242,84.816 217.317,84.669 217.465 " stroke="none" fill="#ffffff" fill-rule="evenodd"></path></g></svg>