<?xml version="1.0" encoding="UTF-8" standalone="no"?>
<!-- Created with Inkscape (http://www.inkscape.org/) -->

<svg
   width="128.0px"
   height="128.0px"
   viewBox="0 0 128.0 128.0"
   version="1.1"
   id="SVGRoot"
   sodipodi:docname="No Entry Sign.svg"
   inkscape:version="1.1 (c68e22c387, 2021-05-23)"
   inkscape:export-filename="D:\Users\jhxua\Documents\HIWS\No Entry Sign.png"
   inkscape:export-xdpi="96"
   inkscape:export-ydpi="96"
   xmlns:inkscape="http://www.inkscape.org/namespaces/inkscape"
   xmlns:sodipodi="http://sodipodi.sourceforge.net/DTD/sodipodi-0.dtd"
   xmlns="http://www.w3.org/2000/svg"
   xmlns:svg="http://www.w3.org/2000/svg">
  <sodipodi:namedview
     id="namedview14"
     pagecolor="#ffffff"
     bordercolor="#666666"
     borderopacity="1.0"
     inkscape:pageshadow="2"
     inkscape:pageopacity="0"
     inkscape:pagecheckerboard="0"
     inkscape:document-units="px"
     showgrid="true"
     inkscape:zoom="2.9647587"
     inkscape:cx="2.361069"
     inkscape:cy="27.48959"
     inkscape:window-width="1920"
     inkscape:window-height="1017"
     inkscape:window-x="1912"
     inkscape:window-y="-8"
     inkscape:window-maximized="1"
     inkscape:current-layer="layer1">
    <inkscape:grid
       type="xygrid"
       id="grid20" />
  </sodipodi:namedview>
  <defs
     id="defs9" />
  <g
     inkscape:label="Layer 1"
     inkscape:groupmode="layer"
     id="layer1">
    <rect
       style="fill:#64a82c;fill-opacity:1;stroke-width:5.52195;stroke-linejoin:round"
       id="rect1410"
       width="128"
       height="30"
       x="0"
       y="0" />
    <path
       id="path0-6"
       d="m 45.939991,5.372827 -2.213803,2.1824479 v 9.6338971 9.633898 h 2.692555 2.692554 l 0.01321,-4.80788 0.01321,-4.807878 h 5.023132 5.02313 l 0.01323,4.807878 0.01323,4.80788 h 2.692559 2.692554 V 17.525976 8.2288853 l 0.410006,-0.394779 0.410006,-0.3947791 h 2.410459 c 2.330193,0 2.412269,0.00339 2.464049,0.098186 0.03637,0.066599 0.05361,3.1757378 0.05361,9.6918698 v 9.593687 h 2.692798 2.692817 v -9.661048 c 0,-8.7628964 0.0076,-9.6639611 0.08195,-9.691869 0.04508,-0.016997 1.19999,-0.030827 2.566464,-0.030827 h 2.484638 l 1.70579,-1.6722261 1.705673,-1.672357 V 3.6359064 3.176939 H 73.955405 63.637141 l -2.213287,2.1692543 -2.213158,2.1692544 -0.0134,2.5625103 -0.0134,2.562509 -4.63475,0.01383 -4.634742,0.01369 -0.35848,0.710779 c -0.236139,0.468229 -0.372854,0.68858 -0.400558,0.645955 -0.02316,-0.03577 -0.04246,-2.49109 -0.04286,-5.4563711 l -6.69e-4,-5.3914204 -0.479007,0.00678 -0.479012,0.00678 -2.213803,2.1824467"
       stroke="none"
       fill="#fbfbfb"
       fill-rule="evenodd"
       style="stroke-width:0.128152" />
    <rect
       style="fill:#000000;fill-opacity:1;stroke-width:1.02783;stop-color:#000000"
       id="rect9621"
       width="128.01189"
       height="98"
       x="0"
       y="30" />
    <text
       xml:space="preserve"
       style="font-weight:bold;font-size:30.7839px;line-height:1.25;font-family:Manrope;-inkscape-font-specification:'Manrope, Bold';stroke-width:0.0428096"
       x="62.991821"
       y="57.444393"
       id="text179"><tspan
         sodipodi:role="line"
         x="62.991821"
         y="57.444393"
         style="font-size:30.7839px;text-align:center;text-anchor:middle;fill:#ffffff;fill-opacity:1;stroke-width:0.0428096"
         id="tspan9014">No entry</tspan></text>
    <text
       xml:space="preserve"
       style="font-weight:bold;font-size:69.2817px;line-height:1.25;font-family:Manrope;-inkscape-font-specification:'Manrope, Bold';stroke-width:0.519613"
       x="29.35915"
       y="130.08652"
       id="text10080"><tspan
         sodipodi:role="line"
         id="tspan10078"
         x="29.35915"
         y="130.08652"
         style="font-style:normal;font-variant:normal;font-weight:bold;font-stretch:normal;font-size:69.2817px;font-family:'Material Icons';-inkscape-font-specification:'Material Icons Bold';fill:#d40000;stroke-width:0.519613"></tspan></text>
  </g>
</svg>
