<?xml version="1.0" encoding="UTF-8" standalone="no"?>
<svg
   width="384"
   height="128"
   viewBox="0 0 101.6 33.866668"
   version="1.1"
   id="svg843"
   inkscape:version="1.1 (c68e22c387, 2021-05-23)"
   sodipodi:docname="Thank you.svg"
   inkscape:export-filename="D:\Users\jhxua\Documents\HIWS\Thank you.png"
   inkscape:export-xdpi="96"
   inkscape:export-ydpi="96"
   xmlns:inkscape="http://www.inkscape.org/namespaces/inkscape"
   xmlns:sodipodi="http://sodipodi.sourceforge.net/DTD/sodipodi-0.dtd"
   xmlns="http://www.w3.org/2000/svg"
   xmlns:svg="http://www.w3.org/2000/svg"
   xmlns:rdf="http://www.w3.org/1999/02/22-rdf-syntax-ns#"
   xmlns:cc="http://creativecommons.org/ns#"
   xmlns:dc="http://purl.org/dc/elements/1.1/">
  <defs
     id="defs837" />
  <sodipodi:namedview
     id="base"
     pagecolor="#ffffff"
     bordercolor="#666666"
     borderopacity="1.0"
     inkscape:pageopacity="0.0"
     inkscape:pageshadow="2"
     inkscape:zoom="1.979899"
     inkscape:cx="188.14091"
     inkscape:cy="58.841385"
     inkscape:document-units="mm"
     inkscape:current-layer="layer1"
     inkscape:document-rotation="0"
     showgrid="true"
     units="px"
     width="1122.5197px"
     showguides="false"
     inkscape:lockguides="false"
     inkscape:window-width="1280"
     inkscape:window-height="657"
     inkscape:window-x="-8"
     inkscape:window-y="-8"
     inkscape:window-maximized="1"
     inkscape:pagecheckerboard="0">
    <inkscape:grid
       type="xygrid"
       id="grid1406" />
  </sodipodi:namedview>
  <metadata
     id="metadata840">
    <rdf:RDF>
      <cc:Work
         rdf:about="">
        <dc:format>image/svg+xml</dc:format>
        <dc:type
           rdf:resource="http://purl.org/dc/dcmitype/StillImage" />
      </cc:Work>
    </rdf:RDF>
  </metadata>
  <g
     inkscape:label="Layer 1"
     inkscape:groupmode="layer"
     id="layer1">
    <path
       id="path0"
       d="M 8.6820571,5.4173832 5.9441313,8.1719612 V 20.331398 32.490833 h 3.3300229 3.3300228 l 0.01633,-6.06827 0.01633,-6.068269 h 6.212368 6.212372 l 0.01633,6.068269 0.01633,6.06827 h 3.330023 3.330023 V 20.756496 9.0221595 l 0.507073,-0.4982706 0.507077,-0.4982707 h 2.981137 c 2.881869,0 2.98338,0.00416 3.047425,0.1239272 0.04499,0.084059 0.06629,4.0082606 0.06629,12.2326066 v 12.108681 h 3.330344 3.330343 v -12.1937 c 0,-11.0601024 0.0094,-12.1973826 0.101351,-12.2326074 0.05572,-0.021455 1.484085,-0.038907 3.174074,-0.038907 h 3.072882 L 53.981931,5.9150128 56.091416,3.8042476 V 3.2251206 2.6458333 H 43.330117 30.568978 l -2.737286,2.737926 -2.737126,2.7379265 -0.01649,3.2342762 -0.01649,3.234275 -5.732034,0.01745 -5.732033,0.01729 -0.443353,0.897112 c -0.292045,0.590975 -0.461124,0.869091 -0.495388,0.815293 -0.02866,-0.04515 -0.05251,-3.144132 -0.053,-6.8867658 l -9.68e-4,-6.8047879 -0.592417,0.00848 -0.592417,0.00848 -2.7379266,2.7545779"
       stroke="none"
       fill="#fbfbfb"
       fill-rule="evenodd"
       style="stroke-width:0.160112" />
    <rect
       style="fill:#64a82c;fill-opacity:1;stroke-width:3.09916;stroke-linejoin:round"
       id="rect1410"
       width="35.71875"
       height="33.864304"
       x="-2.220446e-16"
       y="0" />
    <g
       id="g2083"
       transform="matrix(0.99999231,0,0,0.98461542,5.2388157e-4,0)">
      <rect
         style="fill:#000000;fill-opacity:1;stroke-width:3.06501;stroke-linejoin:round"
         id="rect1410-9"
         width="34.395832"
         height="34.395832"
         x="34.395836"
         y="0" />
      <rect
         style="fill:#000000;fill-opacity:1;stroke-width:3.06501;stroke-linejoin:round"
         id="rect1410-3"
         width="34.395832"
         height="34.395832"
         x="67.46875"
         y="0" />
    </g>
    <path
       id="path0-6"
       d="M 4.5110452,9.3608075 2.8748033,11.007002 v 7.266733 7.266734 h 1.9900916 1.9900912 l 0.00976,-3.626526 0.00976,-3.626525 h 3.7126429 3.712643 l 0.0098,3.626525 0.0098,3.626526 h 1.990092 1.990091 v -7.012686 -7.012685 l 0.30304,-0.297777 0.30304,-0.297777 h 1.78159 c 1.722265,0 1.78293,0.0025 1.821205,0.07406 0.02689,0.05024 0.03961,2.395421 0.03961,7.310462 v 7.236402 h 1.990282 1.990284 v -7.287211 c 0,-6.609749 0.0056,-7.289411 0.06057,-7.310462 0.0333,-0.01282 0.88692,-0.02325 1.896893,-0.02325 h 1.836419 l 1.260767,-1.2613415 1.260672,-1.261438 v -0.346099 -0.346194 h -7.626421 -7.626324 l -1.63586,1.636243 -1.635764,1.6362425 -0.0099,1.932871 -0.0099,1.93287 -3.425583,0.01043 -3.4255834,0.01033 -0.2649563,0.536133 c -0.1745325,0.353179 -0.2755777,0.519387 -0.2960547,0.487236 -0.017128,-0.02698 -0.031384,-1.878999 -0.031673,-4.115675 l -5.787e-4,-4.0666845 -0.3540406,0.0051 -0.3540409,0.0051 -1.636242,1.646194"
       stroke="none"
       fill="#fbfbfb"
       fill-rule="evenodd"
       style="stroke-width:0.0956866" />
    <text
       xml:space="preserve"
       style="font-weight:bold;font-size:8.46667px;line-height:1.25;font-family:Manrope;-inkscape-font-specification:'Manrope, Bold';stroke-width:0.264583"
       x="39.438843"
       y="13.362801"
       id="text20665"><tspan
         sodipodi:role="line"
         id="tspan20663"
         style="font-size:8.46667px;fill:#ffffff;fill-opacity:1;stroke-width:0.264583"
         x="39.438843"
         y="13.362801">Thank you for </tspan><tspan
         sodipodi:role="line"
         style="font-size:8.46667px;fill:#ffffff;fill-opacity:1;stroke-width:0.264583"
         x="39.438843"
         y="23.946138"
         id="tspan23638">riding with us!</tspan></text>
  </g>
</svg>
