<?xml version="1.0" encoding="UTF-8" standalone="no"?>
<!-- Created with Inkscape (http://www.inkscape.org/) -->

<svg
   width="3450"
   height="525"
   viewBox="0 0 3450 525"
   version="1.1"
   id="SVGRoot"
   sodipodi:docname="HT-carriage-advertiserswanted.svg"
   xml:space="preserve"
   inkscape:version="1.2-beta (1b65182ce9, 2022-04-05)"
   inkscape:export-filename="HT-carriage-advertiserswanted.png"
   inkscape:export-xdpi="96"
   inkscape:export-ydpi="96"
   xmlns:inkscape="http://www.inkscape.org/namespaces/inkscape"
   xmlns:sodipodi="http://sodipodi.sourceforge.net/DTD/sodipodi-0.dtd"
   xmlns="http://www.w3.org/2000/svg"
   xmlns:svg="http://www.w3.org/2000/svg"><sodipodi:namedview
     id="namedview2268"
     pagecolor="#ffffff"
     bordercolor="#666666"
     borderopacity="1.0"
     inkscape:pageshadow="2"
     inkscape:pageopacity="0.0"
     inkscape:pagecheckerboard="0"
     inkscape:deskcolor="#d1d1d1"
     inkscape:document-units="px"
     showgrid="true"
     inkscape:zoom="0.18462928"
     inkscape:cx="1836.1118"
     inkscape:cy="32.497554"
     inkscape:window-width="1280"
     inkscape:window-height="649"
     inkscape:window-x="-8"
     inkscape:window-y="-8"
     inkscape:window-maximized="1"
     inkscape:current-layer="layer1"><inkscape:grid
       type="xygrid"
       id="grid2754"
       originx="0"
       originy="0" /></sodipodi:namedview><defs
     id="defs2263" /><g
     inkscape:label="Layer 1"
     inkscape:groupmode="layer"
     id="layer1"><g
       inkscape:label="Layer 1"
       id="layer1-4-0"
       transform="matrix(1.4685315,0,0,4.0384615,2925,-6.3741362e-7)"><rect
         style="fill:#64a82c;fill-opacity:1;stroke-width:1.65831"
         id="rect38-38-8"
         width="357.5"
         height="130"
         x="0"
         y="0" /></g><text
       xml:space="preserve"
       style="font-weight:bold;font-size:45.2795px;line-height:1.25;font-family:Manrope;-inkscape-font-specification:'Manrope, Bold';stroke-width:6.79189"
       x="2835.1965"
       y="482.20761"
       id="text37937-3"
       transform="scale(1.0435887,0.95823192)"><tspan
         sodipodi:role="line"
         style="fill:#ffffff;stroke-width:6.79189"
         x="2835.1965"
         y="482.20761"
         id="tspan40757-1">Keeping you moving</tspan></text><path
       id="path0-6-7"
       d="m 2974.5316,107.22077 -26.106,25.73592 v 113.60504 113.60466 h 31.7514 31.7512 l 0.1338,-56.69547 0.1787,-56.69539 h 59.2337 59.2339 l 0.1342,56.69539 0.1787,56.69547 h 31.751 31.7516 V 250.53319 140.8997 l 4.8348,-4.65525 4.8346,-4.65524 h 28.4246 c 27.4781,0 28.446,0.0378 29.0567,1.15816 0.4452,0.78845 0.6325,37.44908 0.6325,114.28876 v 113.13028 h 31.7542 31.7542 V 246.24194 c 0,-103.33419 0.091,-113.9596 0.9669,-114.28878 0.5307,-0.17813 14.1505,-0.35641 30.2641,-0.35641 h 29.2995 l 20.115,-19.71942 20.1136,-19.720319 V 86.747645 81.3356 h -121.6779 -121.675 l -26.0994,25.58002 -26.0981,25.58047 -0.1784,30.21788 -0.178,30.21744 -54.6541,0.13361 -54.6539,0.13364 -4.2274,8.38176 c -2.7838,5.52163 -4.3963,8.11984 -4.7233,7.61739 -0.2672,-0.44549 -0.4998,-29.37557 -0.5032,-64.34269 l -0.01,-63.576531 -5.6486,0.08905 -5.6486,0.08905 -26.1035,25.740821"
       stroke="none"
       fill="#fbfbfb"
       fill-rule="evenodd"
       style="stroke-width:1.51119" /><g
       inkscape:label="Layer 1"
       id="g7326"
       transform="matrix(8.1818182,0,0,4.0384615,1.5596684e-6,0)"><rect
         style="fill:#64a82c;fill-opacity:1;stroke-width:1.65831"
         id="rect7324"
         width="357.5"
         height="130"
         x="0"
         y="0" /></g><text
       xml:space="preserve"
       style="font-weight:300;font-size:266.667px;line-height:1.25;font-family:Montserrat;-inkscape-font-specification:'Montserrat Light';fill:#ffffff;stroke-width:0.999999"
       x="174.76492"
       y="242.56418"
       id="text7267"><tspan
         sodipodi:role="line"
         id="tspan7265"
         x="174.76492"
         y="242.56418"
         style="font-style:normal;font-variant:normal;font-weight:bold;font-stretch:normal;font-family:Manrope;-inkscape-font-specification:'Manrope Bold';fill:#ffffff;stroke-width:0.999999">Advertisers wanted!</tspan></text><text
       xml:space="preserve"
       style="font-weight:300;font-size:96px;line-height:1.25;font-family:Montserrat;-inkscape-font-specification:'Montserrat Light';fill:#ffffff;stroke-width:0.999999"
       x="1461.54"
       y="357.22433"
       id="text7271"><tspan
         sodipodi:role="line"
         id="tspan7269"
         x="1461.54"
         y="357.22433"
         style="font-style:normal;font-variant:normal;font-weight:bold;font-stretch:normal;font-size:96px;font-family:Manrope;-inkscape-font-specification:'Manrope Bold';text-align:center;text-anchor:middle;fill:#ffffff;stroke-width:0.999999">To buy an advertisement slot, open a </tspan><tspan
         sodipodi:role="line"
         x="1471.14"
         y="478.54077"
         style="font-style:normal;font-variant:normal;font-weight:bold;font-stretch:normal;font-size:96px;font-family:Manrope;-inkscape-font-specification:'Manrope Bold';text-align:center;text-anchor:middle;fill:#ffffff;stroke-width:0.999999"
         id="tspan7322">ticket in # <tspan
   style="text-align:center;text-anchor:middle;fill:#ff0000"
   id="tspan7340">!</tspan> help <tspan
   style="text-align:center;text-anchor:middle;fill:#ff0000"
   id="tspan7342">?</tspan> on the Harlon Discord server. </tspan></text></g></svg>
