<?xml version="1.0" encoding="UTF-8" standalone="no"?>
<!-- Created with Inkscape (http://www.inkscape.org/) -->

<svg
   width="128.0px"
   height="128.0px"
   viewBox="0 0 128.0 128.0"
   version="1.1"
   id="SVGRoot"
   sodipodi:docname="81 to Harlonian Plaza (Top).svg"
   inkscape:version="1.2.2 (732a01da63, 2022-12-09)"
   inkscape:export-filename="D:\Users\jhxua\Documents\HIWS\Bus Departure Notice.png"
   inkscape:export-xdpi="96"
   inkscape:export-ydpi="96"
   xml:space="preserve"
   xmlns:inkscape="http://www.inkscape.org/namespaces/inkscape"
   xmlns:sodipodi="http://sodipodi.sourceforge.net/DTD/sodipodi-0.dtd"
   xmlns="http://www.w3.org/2000/svg"
   xmlns:svg="http://www.w3.org/2000/svg"><sodipodi:namedview
     id="namedview14"
     pagecolor="#ffffff"
     bordercolor="#666666"
     borderopacity="1.0"
     inkscape:pageshadow="2"
     inkscape:pageopacity="0"
     inkscape:pagecheckerboard="0"
     inkscape:document-units="px"
     showgrid="false"
     inkscape:zoom="3.2656155"
     inkscape:cx="-45.167596"
     inkscape:cy="36.134076"
     inkscape:window-width="1920"
     inkscape:window-height="1017"
     inkscape:window-x="-8"
     inkscape:window-y="-8"
     inkscape:window-maximized="1"
     inkscape:current-layer="layer1"
     inkscape:showpageshadow="2"
     inkscape:deskcolor="#d1d1d1"
     showguides="true"><inkscape:grid
       type="xygrid"
       id="grid20" /></sodipodi:namedview><defs
     id="defs9" /><g
     inkscape:label="Layer 1"
     inkscape:groupmode="layer"
     id="layer1"><rect
       style="fill:#000000;fill-opacity:1;stroke-width:0.830573;stop-color:#000000"
       id="rect9621"
       width="128"
       height="64"
       x="0"
       y="0" /><rect
       style="fill:#53a5be;fill-opacity:1;stroke-width:4.50866;stroke-linejoin:round"
       id="rect1410"
       width="128"
       height="20"
       x="0"
       y="0" /><rect
       style="display:none;fill:#6d97a4;fill-opacity:1;stroke-width:4.50866;stroke-linejoin:round"
       id="rect1410-2"
       width="24"
       height="20"
       x="24"
       y="0" /><text
       xml:space="preserve"
       style="font-weight:bold;font-size:10.6667px;line-height:1.25;font-family:Manrope;-inkscape-font-specification:'Manrope, Bold';text-align:start;text-anchor:start;stroke-width:0.0667512"
       x="23.893333"
       y="35.840023"
       id="text179"><tspan
         sodipodi:role="line"
         x="23.893333"
         y="35.840023"
         style="font-size:10.6667px;text-align:start;text-anchor:start;fill:#ffffff;fill-opacity:1;stroke-width:0.0667512"
         id="tspan15477">To Harlonian Plaza</tspan></text><text
       xml:space="preserve"
       style="font-style:normal;font-variant:normal;font-weight:normal;font-stretch:normal;font-size:10.6667px;line-height:1.25;font-family:Manrope;-inkscape-font-specification:Manrope;text-align:start;text-anchor:start;stroke-width:0.0667512"
       x="3.7866659"
       y="55.840023"
       id="text179-0"><tspan
         sodipodi:role="line"
         x="3.7866659"
         y="55.840023"
         style="font-style:normal;font-variant:normal;font-weight:normal;font-stretch:normal;font-size:10.6667px;font-family:Manrope;-inkscape-font-specification:Manrope;text-align:start;text-anchor:start;fill:#ffffff;fill-opacity:1;stroke-width:0.0667512"
         id="tspan15477-3">via Capital Station</tspan></text><g
       inkscape:label="Layer 1"
       id="layer1-2"
       transform="matrix(0.15625006,0,0,0.15625006,-8.247528,-19.434937)"><path
         id="path0-6"
         d="m 85.372437,157.36943 -6.988288,7.03079 v 31.03585 31.03577 h 8.49957 8.499555 l 0.04263,-15.48868 0.04263,-15.48867 H 111.325 127.1815 l 0.0426,15.48867 0.0426,15.48868 h 8.49957 8.49956 v -29.95078 -29.95078 l 1.29425,-1.27179 1.29428,-1.27181 h 7.60907 c 7.35572,0 7.61481,0.0128 7.77824,0.31649 0.11495,0.21439 0.16914,10.23074 0.16914,31.2226 v 30.90625 h 8.50041 8.50038 v -31.12325 c 0,-28.22988 0.0256,-31.13267 0.25883,-31.22258 0.14213,-0.0547 3.78799,-0.0995 8.10149,-0.0995 h 7.84326 l 5.38468,-5.38712 5.38424,-5.3875 v -1.47817 -1.4786 h -32.572 -32.5716 l -6.98667,6.98833 -6.98628,6.98829 -0.0426,8.25518 -0.0426,8.25517 -14.63045,0.0445 -14.630482,0.0439 -1.131618,2.28977 c -0.745421,1.50842 -1.176997,2.21831 -1.264417,2.08099 -0.07313,-0.11531 -0.134142,-8.02511 -0.135368,-17.57784 l -0.0029,-17.36856 -1.512071,0.0214 -1.512099,0.0214 -6.988289,7.03079"
         stroke="none"
         fill="#fbfbfb"
         fill-rule="evenodd"
         style="stroke-width:0.408673" /></g><g
       transform="matrix(0.1201209,0,0,0.1201209,24.863395,-29.102146)"
       id="g3854"
       style="fill:#000000;fill-opacity:1"><path
         d="m 77.998457,338.04465 c 9.719843,-3.74035 16.634311,-13.17634 16.634311,-24.1989 0,-14.29201 -11.62467,-25.91668 -25.916678,-25.91668 -14.292008,0 -25.95413,11.62467 -25.95413,25.91668 0,14.29201 11.662122,25.91668 25.95413,25.91668 0.54665,0 1.089397,-0.017 1.627741,-0.0505 -0.212847,-1.56081 -0.14221,-4.09918 0.0472,-5.10887 -0.552337,0.0437 -1.110922,0.0659 -1.674938,0.0659 -11.526965,0 -20.823227,-9.29627 -20.823227,-20.82323 0,-11.52696 9.296262,-20.82323 20.823227,-20.82323 v 4e-5 c 11.526959,0 20.785775,9.29627 20.785775,20.82323 0,7.91769 -4.368408,14.78291 -10.83969,18.30588 -0.315166,1.3712 -0.711622,4.31209 -0.663721,5.893 z"
         id="path3016"
         style="fill:#ffffff;fill-opacity:1" /><path
         d="m 118.12057,340.00218 c -1.34862,10.20474 -10.02005,18.04148 -20.603518,18.04148 -11.52697,0 -20.82323,-9.29627 -20.82323,-20.82323 0,-7.8992 4.36561,-14.75085 10.82304,-18.28114 0.45237,-1.7753 0.72684,-3.69514 0.65576,-5.89574 -9.70007,3.75525 -16.6097,13.17589 -16.6097,24.17688 0,14.29201 11.66212,25.91668 25.95413,25.91668 13.026538,0 23.837178,-9.65722 25.649488,-22.18923 -1.32835,-0.0348 -4.11703,-0.60321 -5.04597,-0.9457 z m 4.98685,-6.89716 c -1.97707,-12.3428 -12.69857,-21.80127 -25.590368,-21.80127 -0.5666,0 -1.12907,0.0183 -1.68684,0.0542 0.31178,1.20255 0.3074,3.96583 -0.0166,5.10739 v 6e-5 c 0.5617,-0.0452 1.1298,-0.0682 1.70343,-0.0682 9.546428,0 17.537168,6.37619 20.001238,15.11504 1.68318,0.64085 3.49015,1.20604 5.58913,1.59278 z"
         id="path3790"
         style="fill:#ffffff;fill-opacity:1" /><path
         d="m 157.72746,317.82769 c 1.60373,10.29047 9.36704,19.0414 20.1411,21.36875 13.96979,3.01767 27.78686,-5.89044 30.80453,-19.86023 3.01768,-13.9698 -5.88253,-27.82347 -19.85233,-30.84115 -13.96979,-3.01767 -27.79477,5.92705 -30.81244,19.89685 -0.11542,0.53432 -0.2134,1.06841 -0.29433,1.6017 1.57057,0.12151 4.03679,0.72651 4.98373,1.12484 0.0739,-0.54911 0.17015,-1.09979 0.28924,-1.65109 2.43385,-11.26709 13.48338,-18.39092 24.75047,-15.95707 11.26708,2.43385 18.39092,13.48338 15.95706,24.75047 l -3e-5,-1e-5 c -2.43385,11.26709 -13.47548,18.35431 -24.74257,15.92046 -7.73918,-1.67178 -13.52726,-7.39124 -15.60443,-14.46049 -1.27374,-0.59757 -4.06462,-1.60605 -5.62,-1.89303 z"
         id="path3842"
         style="fill:#ffffff;fill-opacity:1" /><path
         d="m 105.40431,311.064 c 1.34862,-10.20474 10.02005,-18.04148 20.60351,-18.04148 11.52697,0 20.82323,9.29627 20.82323,20.82323 0,7.8992 -4.36561,14.75085 -10.82304,18.28114 -0.45237,1.7753 -0.72684,3.69514 -0.65576,5.89574 9.70007,-3.75525 16.6097,-13.17589 16.6097,-24.17688 0,-14.29201 -11.66212,-25.91668 -25.95413,-25.91668 -13.02653,0 -23.83717,9.65722 -25.64948,22.18923 1.32835,0.0348 4.11703,0.60321 5.04597,0.9457 z m -4.98685,6.89716 c 1.97707,12.3428 12.69857,21.80127 25.59036,21.80127 0.5666,0 1.12907,-0.0183 1.68684,-0.0542 -0.31178,-1.20255 -0.3074,-3.96583 0.0166,-5.10739 v -6e-5 c -0.5617,0.0452 -1.1298,0.0682 -1.70343,0.0682 -9.54642,0 -17.53716,-6.37619 -20.00123,-15.11504 -1.68318,-0.64085 -3.49015,-1.20604 -5.58913,-1.59278 z"
         id="path3850"
         style="fill:#ffffff;fill-opacity:1" /><path
         d="m 175.43867,340.00219 c -1.34862,10.20474 -10.02005,18.04148 -20.60351,18.04148 -11.52697,0 -20.82323,-9.29627 -20.82323,-20.82323 0,-7.8992 4.36561,-14.75085 10.82304,-18.28114 0.45237,-1.7753 0.72684,-3.69514 0.65576,-5.89574 -9.70007,3.75525 -16.6097,13.17589 -16.6097,24.17688 0,14.29201 11.66212,25.91668 25.95413,25.91668 13.02653,0 23.83717,-9.65722 25.64948,-22.18923 -1.32835,-0.0348 -4.11703,-0.60321 -5.04597,-0.9457 z m 4.98685,-6.89716 c -1.97707,-12.3428 -12.69857,-21.80127 -25.59036,-21.80127 -0.5666,0 -1.12907,0.0183 -1.68684,0.0542 0.31178,1.20255 0.3074,3.96583 -0.0166,5.10739 v 6e-5 c 0.5617,-0.0452 1.1298,-0.0682 1.70343,-0.0682 9.54642,0 17.53716,6.37619 20.00123,15.11504 1.68318,0.64085 3.49015,1.20604 5.58913,1.59278 z"
         id="path3852"
         style="fill:#ffffff;fill-opacity:1" /></g><circle
       style="fill:#53a5be;fill-opacity:1;stroke:none;stroke-width:0;stroke-linecap:square;stroke-miterlimit:100;stroke-dasharray:none;paint-order:fill markers stroke"
       id="path8183"
       cx="12"
       cy="32"
       r="10" /><text
       xml:space="preserve"
       style="font-style:normal;font-variant:normal;font-weight:600;font-stretch:normal;font-size:13.3333px;font-family:Manrope;-inkscape-font-specification:'Manrope Semi-Bold';text-align:center;text-anchor:middle;fill:#ffffff;fill-opacity:1;stroke:none;stroke-width:0;stroke-linecap:square;stroke-miterlimit:100;stroke-dasharray:none;paint-order:fill markers stroke"
       x="12.400005"
       y="36.799988"
       id="text9743"><tspan
         sodipodi:role="line"
         id="tspan9741"
         x="12.400005"
         y="36.799988">81</tspan></text></g></svg>
