<?xml version="1.0" standalone="no"?>
<!DOCTYPE svg PUBLIC "-//W3C//DTD SVG 20010904//EN"
 "http://www.w3.org/TR/2001/REC-SVG-20010904/DTD/svg10.dtd">
<svg version="1.0" xmlns="http://www.w3.org/2000/svg"
 width="128.000000pt" height="128.000000pt" viewBox="0 0 128.000000 128.000000"
 preserveAspectRatio="xMidYMid meet">

<g transform="translate(0.000000,128.000000) scale(0.100000,-0.100000)"
fill="#000000" stroke="none">
<path d="M205 1040 l-120 -120 123 -122 122 -123 27 28 28 27 -75 75 -74 75
172 0 172 0 0 -240 0 -240 -240 0 -240 0 0 -40 0 -40 452 0 452 0 -74 -75 -75
-75 28 -27 27 -28 123 123 122 122 -122 122 -123 123 -27 -28 -28 -27 75 -75
74 -75 -172 0 -172 0 0 240 0 240 240 0 240 0 0 40 0 40 -452 0 -452 0 74 75
74 74 -24 26 c-13 14 -26 25 -29 25 -4 0 -60 -54 -126 -120z"/>
</g>
</svg>
