<?xml version="1.0" encoding="UTF-8" standalone="no"?>
<svg
   xmlns:dc="http://purl.org/dc/elements/1.1/"
   xmlns:cc="http://creativecommons.org/ns#"
   xmlns:rdf="http://www.w3.org/1999/02/22-rdf-syntax-ns#"
   xmlns:svg="http://www.w3.org/2000/svg"
   xmlns="http://www.w3.org/2000/svg"
   xmlns:sodipodi="http://sodipodi.sourceforge.net/DTD/sodipodi-0.dtd"
   xmlns:inkscape="http://www.inkscape.org/namespaces/inkscape"
   version="1.0"
   width="128.000000pt"
   height="128.000000pt"
   viewBox="0 0 128.000000 128.000000"
   preserveAspectRatio="xMidYMid meet"
   id="svg6"
   sodipodi:docname="HT_Logo_1.svg"
   inkscape:version="1.0.2 (e86c870879, 2021-01-15)">
  <metadata
     id="metadata12">
    <rdf:RDF>
      <cc:Work
         rdf:about="">
        <dc:format>image/svg+xml</dc:format>
        <dc:type
           rdf:resource="http://purl.org/dc/dcmitype/StillImage" />
      </cc:Work>
    </rdf:RDF>
  </metadata>
  <defs
     id="defs10" />
  <sodipodi:namedview
     pagecolor="#ffffff"
     bordercolor="#666666"
     borderopacity="1"
     objecttolerance="10"
     gridtolerance="10"
     guidetolerance="10"
     inkscape:pageopacity="0"
     inkscape:pageshadow="2"
     inkscape:window-width="3840"
     inkscape:window-height="2066"
     id="namedview8"
     showgrid="false"
     inkscape:zoom="4.6875"
     inkscape:cx="85.333333"
     inkscape:cy="43.093333"
     inkscape:window-x="-11"
     inkscape:window-y="-11"
     inkscape:window-maximized="1"
     inkscape:current-layer="g4" />
  <g
     transform="translate(0.000000,128.000000) scale(0.100000,-0.100000)"
     fill="#000000"
     stroke="none"
     id="g4">
    <path
       d="M 200.2,1054.4 80.200001,934.4 203.2,812.4 l 122,-123 27,28 28,27 -75,75 -74,75 h 172 172 v -240 -240 H 335.2 95.200001 v -40 -40 H 547.2 h 452 l -74,-75 -75,-75 28,-27 27,-28 123,123 122,122 -122,122 -123,123 -27,-28 -28,-27 75,-75 74,-75 h -172 -172 v 240 240 h 240 240 v 40 40 h -452 -452 l 74,75 74,74 -24,26 c -13,14 -26,25 -29,25 -4,0 -60,-54 -126,-120 z"
       id="path2" />
  </g>
</svg>
