<?xml version="1.0" encoding="UTF-8" standalone="no"?>
<!-- Created with Inkscape (http://www.inkscape.org/) -->

<svg
   width="256"
   height="256"
   viewBox="0 0 67.733332 67.733332"
   version="1.1"
   id="svg1"
   xml:space="preserve"
   inkscape:version="1.4 (86a8ad7, 2024-10-11)"
   sodipodi:docname="Pathfinder-exp.svg"
   inkscape:export-filename="Pathfinder-exp.png"
   inkscape:export-xdpi="96"
   inkscape:export-ydpi="96"
   xmlns:inkscape="http://www.inkscape.org/namespaces/inkscape"
   xmlns:sodipodi="http://sodipodi.sourceforge.net/DTD/sodipodi-0.dtd"
   xmlns="http://www.w3.org/2000/svg"
   xmlns:svg="http://www.w3.org/2000/svg"><sodipodi:namedview
     id="namedview1"
     pagecolor="#ffffff"
     bordercolor="#000000"
     borderopacity="0.25"
     inkscape:showpageshadow="2"
     inkscape:pageopacity="0.0"
     inkscape:pagecheckerboard="0"
     inkscape:deskcolor="#d1d1d1"
     inkscape:document-units="mm"
     inkscape:zoom="4.1585017"
     inkscape:cx="103.40263"
     inkscape:cy="61.440398"
     inkscape:window-width="2560"
     inkscape:window-height="1369"
     inkscape:window-x="-8"
     inkscape:window-y="-8"
     inkscape:window-maximized="1"
     inkscape:current-layer="layer1"
     showgrid="true"
     showborder="true"
     inkscape:export-bgcolor="#ffffff00"><inkscape:grid
       id="grid262167"
       units="mm"
       originx="0"
       originy="0"
       spacingx="0.99999998"
       spacingy="0.99999998"
       empcolor="#0099e5"
       empopacity="0.30196078"
       color="#0099e5"
       opacity="0.14901961"
       empspacing="5"
       enabled="true"
       visible="true" /></sodipodi:namedview><defs
     id="defs1"><filter
       style="color-interpolation-filters:sRGB;"
       inkscape:label="Colorize"
       id="filter262146"
       x="0"
       y="0"
       width="1"
       height="1"><feComposite
         in2="SourceGraphic"
         operator="arithmetic"
         k1="0"
         k2="1"
         result="composite1"
         id="feComposite262145" /><feColorMatrix
         in="composite1"
         values="1"
         type="saturate"
         result="colormatrix1"
         id="feColorMatrix262145" /><feFlood
         flood-opacity="1"
         flood-color="rgb(0,0,121)"
         result="flood1"
         id="feFlood262145" /><feBlend
         in="flood1"
         in2="colormatrix1"
         mode="multiply"
         result="blend1"
         id="feBlend262145" /><feBlend
         in2="blend1"
         mode="screen"
         result="blend2"
         id="feBlend262146" /><feColorMatrix
         in="blend2"
         values="1"
         type="saturate"
         result="colormatrix2"
         id="feColorMatrix262146" /><feComposite
         in="colormatrix2"
         in2="SourceGraphic"
         operator="in"
         k2="1"
         result="fbSourceGraphic"
         id="feComposite262146" /><feColorMatrix
         result="fbSourceGraphicAlpha"
         in="fbSourceGraphic"
         values="0 0 0 -1 0 0 0 0 -1 0 0 0 0 -1 0 0 0 0 1 0"
         id="feColorMatrix262147" /><feComposite
         id="feComposite262147"
         in2="fbSourceGraphic"
         operator="arithmetic"
         k1="0"
         k2="1"
         result="composite1"
         in="fbSourceGraphic" /><feColorMatrix
         id="feColorMatrix262148"
         in="composite1"
         values="1"
         type="saturate"
         result="colormatrix1" /><feFlood
         id="feFlood262148"
         flood-opacity="1"
         flood-color="rgb(0,0,121)"
         result="flood1" /><feBlend
         id="feBlend262148"
         in="flood1"
         in2="colormatrix1"
         mode="multiply"
         result="blend1" /><feBlend
         id="feBlend262149"
         in2="blend1"
         mode="screen"
         result="blend2" /><feColorMatrix
         id="feColorMatrix262149"
         in="blend2"
         values="1"
         type="saturate"
         result="colormatrix2" /><feComposite
         id="feComposite262149"
         in="colormatrix2"
         in2="fbSourceGraphic"
         operator="in"
         k2="1"
         result="fbSourceGraphic" /><feColorMatrix
         result="fbSourceGraphicAlpha"
         in="fbSourceGraphic"
         values="0 0 0 -1 0 0 0 0 -1 0 0 0 0 -1 0 0 0 0 1 0"
         id="feColorMatrix262152" /><feComposite
         id="feComposite262152"
         in2="fbSourceGraphic"
         operator="arithmetic"
         k1="0"
         k2="1"
         result="composite1"
         in="fbSourceGraphic" /><feColorMatrix
         id="feColorMatrix262153"
         in="composite1"
         values="1"
         type="saturate"
         result="colormatrix1" /><feFlood
         id="feFlood262153"
         flood-opacity="1"
         flood-color="rgb(0,0,121)"
         result="flood1" /><feBlend
         id="feBlend262153"
         in="flood1"
         in2="colormatrix1"
         mode="multiply"
         result="blend1" /><feBlend
         id="feBlend262154"
         in2="blend1"
         mode="screen"
         result="blend2" /><feColorMatrix
         id="feColorMatrix262154"
         in="blend2"
         values="1"
         type="saturate"
         result="colormatrix2" /><feComposite
         id="feComposite262154"
         in="colormatrix2"
         in2="fbSourceGraphic"
         operator="in"
         k2="1"
         result="composite2" /></filter><filter
       style="color-interpolation-filters:sRGB;"
       inkscape:label="Colorize"
       id="filter262156"
       x="0"
       y="0"
       width="1"
       height="1"><feComposite
         in2="SourceGraphic"
         operator="arithmetic"
         k1="0"
         k2="1"
         result="composite1"
         id="feComposite262155" /><feColorMatrix
         in="composite1"
         values="1"
         type="saturate"
         result="colormatrix1"
         id="feColorMatrix262155" /><feFlood
         flood-opacity="1"
         flood-color="rgb(0,0,121)"
         result="flood1"
         id="feFlood262155" /><feBlend
         in="flood1"
         in2="colormatrix1"
         mode="multiply"
         result="blend1"
         id="feBlend262155" /><feBlend
         in2="blend1"
         mode="screen"
         result="blend2"
         id="feBlend262156" /><feColorMatrix
         in="blend2"
         values="1"
         type="saturate"
         result="colormatrix2"
         id="feColorMatrix262156" /><feComposite
         in="colormatrix2"
         in2="SourceGraphic"
         operator="in"
         k2="1"
         result="composite2"
         id="feComposite262156" /></filter></defs><g
     inkscape:label="Ebene 1"
     inkscape:groupmode="layer"
     id="layer1"><rect
       style="fill:#000079;fill-opacity:1;fill-rule:evenodd;stroke-width:0.282398"
       id="rect1"
       width="34.281956"
       height="67.776588"
       x="15.476368"
       y="0"
       sodipodi:insensitive="true" /><g
       id="g262168"
       sodipodi:insensitive="true"><circle
         style="fill:#64a82c;fill-opacity:1;stroke-width:0.269816"
         id="circle262167"
         cx="20.582481"
         cy="37.268814"
         r="4.1355" /><path
         style="fill:#000079;fill-opacity:1;stroke:none"
         d="m 21.744177,36.695316 h -2.8386 c -0.225084,0 -0.483136,-0.03528 -0.704544,0.0048 -0.09438,0.01706 -0.179224,0.07707 -0.213466,0.169329 -0.07463,0.201065 -0.04947,0.569776 0.193044,0.635647 0.115246,0.0313 0.258937,0.0095 0.377799,0.0095 h 0.755599 2.440379 l -0.612648,0.614424 -0.38801,0.389135 c -0.06691,0.0671 -0.147911,0.130872 -0.175781,0.225289 -0.0743,0.251712 0.27072,0.603386 0.522948,0.527996 0.195528,-0.05844 0.369649,-0.315014 0.51054,-0.456314 l 1.143608,-1.146924 c 0.143329,-0.143744 0.438765,-0.339639 0.438765,-0.563221 0,-0.223583 -0.295436,-0.419478 -0.438765,-0.563222 l -1.143608,-1.146924 c -0.138788,-0.139191 -0.316774,-0.402407 -0.51054,-0.457736 -0.260775,-0.07446 -0.596013,0.283939 -0.52138,0.539659 0.02694,0.09229 0.108951,0.159837 0.174213,0.225289 l 0.3778,0.378894 z"
         id="path262166" /></g><rect
       style="fill:#64a82c;fill-opacity:1;fill-rule:evenodd;stroke-width:0.190547"
       id="rect2"
       width="31.804951"
       height="0.22814433"
       x="16.703407"
       y="30.667097"
       sodipodi:insensitive="true" /><g
       id="g262167"
       transform="translate(0,9.289203)"
       sodipodi:insensitive="true"><circle
         style="fill:#64a82c;fill-opacity:1;stroke-width:0.269816"
         id="path2"
         cx="20.582481"
         cy="16.192377"
         r="4.1355" /><path
         style="fill:#000079;fill-opacity:1;stroke:none"
         d="m 20.183517,14.985912 v 2.848852 c 0,0.219098 -0.03887,0.480111 0.0068,0.694344 0.02188,0.102567 0.08517,0.186612 0.187177,0.219866 0.203753,0.06642 0.554323,0.03469 0.613681,-0.209655 0.02928,-0.120526 0.0092,-0.264414 0.0092,-0.388016 v -0.755609 -2.419993 l 0.612657,0.612657 0.388015,0.388015 c 0.06591,0.0659 0.131051,0.148665 0.224641,0.174319 0.257587,0.07061 0.603199,-0.274775 0.523058,-0.531701 -0.02644,-0.08476 -0.09467,-0.14343 -0.155464,-0.204219 L 22.286971,15.108444 21.153557,13.97503 c -0.143371,-0.143371 -0.337996,-0.437994 -0.561602,-0.438267 -0.22333,-2.73e-4 -0.418254,0.294919 -0.561602,0.438267 l -1.133414,1.133414 -0.306328,0.306328 c -0.06079,0.06079 -0.129028,0.119463 -0.155465,0.204219 -0.07918,0.253835 0.265556,0.606311 0.523059,0.533127 0.100995,-0.0287 0.173631,-0.114524 0.245062,-0.185956 l 0.367594,-0.367593 z"
         id="path262165" /></g><g
       id="g262170"
       sodipodi:insensitive="true"><text
         xml:space="preserve"
         style="font-size:2.85176px;font-family:Manrope;-inkscape-font-specification:Manrope;text-align:start;writing-mode:lr-tb;direction:ltr;text-anchor:start;fill:#ffffff;fill-opacity:1;stroke-width:0.237645"
         x="26.001474"
         y="26.164635"
         id="text262166"><tspan
           sodipodi:role="line"
           id="tspan262166"
           style="fill:#ffffff;fill-opacity:1;stroke-width:0.237645"
           x="26.001474"
           y="26.164635">Spawn</tspan></text><text
         xml:space="preserve"
         style="font-size:1.60621px;font-family:Manrope;-inkscape-font-specification:Manrope;text-align:start;writing-mode:lr-tb;direction:ltr;text-anchor:start;fill:#ffffff;fill-opacity:1;stroke-width:0.133851"
         x="35.84322"
         y="26.139246"
         id="text262167"><tspan
           sodipodi:role="line"
           id="tspan262167"
           style="fill:#ffffff;fill-opacity:1;stroke-width:0.133851"
           x="35.84322"
           y="26.139246">200m</tspan></text><g
         id="g2828"
         transform="matrix(0.00411252,0,0,0.00411252,40.992589,24.289324)"><rect
           style="fill:#2575c2;fill-opacity:1"
           id="rect2430"
           width="513.15747"
           height="511.13718"
           x="2.0203052"
           y="2.0203052" /><text
           xml:space="preserve"
           style="font-style:normal;font-weight:normal;font-size:507.661px;line-height:1.25;font-family:sans-serif;fill:#000000;fill-opacity:1;stroke:none;stroke-width:2.64407"
           x="7.8346195"
           y="511.38376"
           id="text2434"><tspan
             sodipodi:role="line"
             id="tspan2432"
             x="7.8346195"
             y="511.38376"
             style="font-style:normal;font-variant:normal;font-weight:normal;font-stretch:normal;font-size:507.661px;font-family:'Material Icons';-inkscape-font-specification:'Material Icons';fill:#ffffff;fill-opacity:1;stroke-width:2.64407"></tspan></text></g><text
         xml:space="preserve"
         style="font-size:1.39413px;font-family:Manrope;-inkscape-font-specification:Manrope;text-align:start;writing-mode:lr-tb;direction:ltr;text-anchor:start;fill:#ffffff;fill-opacity:1;stroke-width:0.116177"
         x="25.98468"
         y="28.480635"
         id="text12"><tspan
           sodipodi:role="line"
           id="tspan12"
           style="fill:#ffffff;fill-opacity:1;stroke-width:0.116177"
           x="25.98468"
           y="28.480635">Harlonian Plaza</tspan></text></g><rect
       style="fill:#64a82c;fill-opacity:1;fill-rule:evenodd;stroke-width:1.32233"
       id="rect262167"
       width="34.302216"
       height="10.187119"
       x="15.452277"
       y="-0.018431108"
       sodipodi:insensitive="true" /><g
       id="g262171"
       sodipodi:insensitive="true"><text
         xml:space="preserve"
         style="font-size:2.85176px;font-family:Manrope;-inkscape-font-specification:Manrope;text-align:start;writing-mode:lr-tb;direction:ltr;text-anchor:start;fill:#ffffff;fill-opacity:1;stroke-width:0.237645"
         x="26.001474"
         y="37.771912"
         id="text262168"><tspan
           sodipodi:role="line"
           id="tspan262168"
           style="fill:#ffffff;fill-opacity:1;stroke-width:0.237645"
           x="26.001474"
           y="37.771912">Centre Boulevard</tspan></text><text
         xml:space="preserve"
         style="font-size:1.60621px;font-family:Manrope;-inkscape-font-specification:Manrope;text-align:start;writing-mode:lr-tb;direction:ltr;text-anchor:start;fill:#ffffff;fill-opacity:1;stroke-width:0.133851"
         x="26.058016"
         y="40.108467"
         id="text262169"><tspan
           sodipodi:role="line"
           id="tspan262169"
           style="fill:#ffffff;fill-opacity:1;stroke-width:0.133851"
           x="26.058016"
           y="40.108467">500m</tspan></text><g
         id="g100"
         transform="matrix(0.0038272,0,0,0.0038272,31.10606,38.551139)"><rect
           style="fill:#b6b1d5;fill-opacity:1"
           id="rect2430-2"
           width="513.15747"
           height="511.13718"
           x="-29.603064"
           y="-0.85454655" /><text
           xml:space="preserve"
           style="font-style:normal;font-weight:normal;font-size:507.661px;line-height:1.25;font-family:sans-serif;fill:#000000;fill-opacity:1;stroke:none;stroke-width:2.64407"
           x="-32.413303"
           y="517.13348"
           id="text2434-1"><tspan
             sodipodi:role="line"
             id="tspan2432-9"
             x="-32.413303"
             y="517.13348"
             style="font-style:normal;font-variant:normal;font-weight:normal;font-stretch:normal;font-size:507.661px;font-family:'Material Icons';-inkscape-font-specification:'Material Icons';fill:#ffffff;fill-opacity:1;stroke-width:2.64407"></tspan></text></g></g><path
       style="fill:#000079;fill-opacity:1;stroke:none"
       d="m 20.861376,1.0478879 c -0.929027,0.1672064 -0.681542,1.6203813 0.243055,1.4569514 0.12722,-0.022487 0.242933,-0.066565 0.347155,-0.1442605 0.611021,-0.4555011 0.141415,-1.44436871 -0.59021,-1.3126909 m -0.954859,2.7176259 c -0.21017,0.7476 -0.303627,1.5340209 -0.474818,2.2916631 -0.05749,0.2544515 -0.0553,0.6291157 -0.196853,0.8506931 -0.280291,0.4387615 -0.6815,0.8275517 -1.008939,1.2326369 -0.143793,0.1778918 -0.340213,0.35604 -0.267489,0.607638 0.06258,0.2165001 0.333143,0.308014 0.524476,0.1990765 0.178518,-0.1016414 0.315369,-0.3372489 0.444034,-0.494215 0.218501,-0.266561 0.436425,-0.5336827 0.656908,-0.7986098 0.11267,-0.1353813 0.260929,-0.2758022 0.340042,-0.4340271 0.06876,-0.1375143 0.08115,-0.3189882 0.111105,-0.4687493 0.04541,-0.2269858 0.121976,-0.4627507 0.13195,-0.6944433 0.263383,0.1467797 0.502148,0.3543933 0.746526,0.5308259 0.08307,0.059977 0.227763,0.1262281 0.254898,0.2331285 0.03568,0.1405809 0.0055,0.3238005 0.0055,0.4686825 v 1.0069429 c 0,0.2068076 -0.03864,0.4670846 0.140509,0.6157558 0.20398,0.1692737 0.533081,0.057244 0.594149,-0.1990898 0.04107,-0.1723811 0.01187,-0.378962 0.01187,-0.5555547 V 7.0467586 c 0,-0.1970351 0.04681,-0.4635485 -0.05062,-0.6422933 -0.130768,-0.2398985 -0.514443,-0.4180515 -0.730625,-0.5794797 -0.0737,-0.055034 -0.220979,-0.125213 -0.246981,-0.2194512 -0.02753,-0.099774 0.03947,-0.2642882 0.05948,-0.3643285 0.0567,-0.2835492 0.115092,-0.5668239 0.170141,-0.8506931 0.08125,0.1716632 0.1333,0.4044701 0.278528,0.5344827 0.100656,0.090111 0.255887,0.1181919 0.381194,0.1599606 0.293242,0.097747 0.661185,0.2950288 0.97222,0.2946293 0.168213,-2.156e-4 0.334573,-0.122468 0.360886,-0.2946293 C 23.186097,4.6173047 22.506343,4.5391337 22.180819,4.4310222 22.101602,4.404713 21.990239,4.3905684 21.929056,4.3297628 21.851874,4.2530578 21.820292,4.1063697 21.776209,4.0085689 21.5984,3.6140907 21.46678,2.9878635 21.052348,2.7806203 20.582651,2.5457408 19.980789,2.948845 19.541934,3.115786 19.375455,3.179115 19.138001,3.2301536 19.005374,3.3525586 18.876476,3.4715229 18.821521,3.69329 18.757202,3.8523192 c -0.103262,0.2553152 -0.31255,0.5736109 -0.325681,0.8506931 -0.0089,0.1880272 0.09263,0.3707085 0.294442,0.39609 0.559041,0.070311 0.544125,-0.8350471 0.782548,-1.1551553 0.07265,-0.097539 0.287292,-0.1357246 0.398006,-0.1784332 z"
       id="path1"
       sodipodi:insensitive="true" /><path
       id="path0-6"
       d="M 39.411142,1.7482728 38.921594,2.2407982 V 4.4149344 6.589071 h 0.595416 0.595416 l 0.0029,-1.0850215 0.0029,-1.0850212 h 1.110787 1.110787 l 0.0029,1.0850212 0.0029,1.0850215 h 0.595416 0.595416 V 4.4909431 2.3928156 l 0.09067,-0.089092 0.09067,-0.089092 h 0.533034 c 0.515285,0 0.533436,7.48e-4 0.544887,0.022158 0.008,0.015031 0.01185,0.7166868 0.01185,2.1872196 v 2.1650615 h 0.595473 0.595474 V 4.4088076 c 0,-1.977573 0.0017,-2.1809213 0.01812,-2.1872195 0.01,-0.00384 0.265358,-0.00696 0.567532,-0.00696 h 0.549439 L 47.51079,1.837247 47.887971,1.459837 V 1.3562913 1.2527134 H 45.60632 43.324598 l -0.489433,0.4895481 -0.489405,0.4895478 -0.003,0.5782963 -0.003,0.578296 -1.024902,0.00312 -1.024901,0.00309 -0.07927,0.1604058 c -0.05222,0.1056678 -0.08245,0.1553956 -0.08858,0.1457763 -0.0051,-0.00807 -0.0094,-0.5621783 -0.0095,-1.2313701 l -1.73e-4,-1.2167126 -0.105926,0.00153 -0.105926,0.00153 -0.489547,0.4925253"
       stroke="none"
       fill="#fbfbfb"
       fill-rule="evenodd"
       style="stroke-width:0.0286285"
       sodipodi:insensitive="true" /><g
       id="g9"
       transform="translate(0,-0.24855861)"
       sodipodi:insensitive="true"><circle
         style="fill:#64a82c;fill-opacity:1;stroke-width:0.269816"
         id="circle9"
         cx="20.582481"
         cy="16.192377"
         r="4.1355" /><path
         style="fill:#000079;fill-opacity:1;stroke:none"
         d="m 20.183517,14.985912 v 2.848852 c 0,0.219098 -0.03887,0.480111 0.0068,0.694344 0.02188,0.102567 0.08517,0.186612 0.187177,0.219866 0.203753,0.06642 0.554323,0.03469 0.613681,-0.209655 0.02928,-0.120526 0.0092,-0.264414 0.0092,-0.388016 v -0.755609 -2.419993 l 0.612657,0.612657 0.388015,0.388015 c 0.06591,0.0659 0.131051,0.148665 0.224641,0.174319 0.257587,0.07061 0.603199,-0.274775 0.523058,-0.531701 -0.02644,-0.08476 -0.09467,-0.14343 -0.155464,-0.204219 L 22.286971,15.108444 21.153557,13.97503 c -0.143371,-0.143371 -0.337996,-0.437994 -0.561602,-0.438267 -0.22333,-2.73e-4 -0.418254,0.294919 -0.561602,0.438267 l -1.133414,1.133414 -0.306328,0.306328 c -0.06079,0.06079 -0.129028,0.119463 -0.155465,0.204219 -0.07918,0.253835 0.265556,0.606311 0.523059,0.533127 0.100995,-0.0287 0.173631,-0.114524 0.245062,-0.185956 l 0.367594,-0.367593 z"
         id="path9" /></g><g
       id="g12"
       transform="translate(0,-9.5377616)"
       sodipodi:insensitive="true"><text
         xml:space="preserve"
         style="font-size:2.85176px;font-family:Manrope;-inkscape-font-specification:Manrope;text-align:start;writing-mode:lr-tb;direction:ltr;text-anchor:start;fill:#ffffff;fill-opacity:1;stroke-width:0.237645"
         x="26.001474"
         y="26.164635"
         id="text9"><tspan
           sodipodi:role="line"
           id="tspan9"
           style="fill:#ffffff;fill-opacity:1;stroke-width:0.237645"
           x="26.001474"
           y="26.164635">Faybury</tspan></text><text
         xml:space="preserve"
         style="font-size:1.60621px;font-family:Manrope;-inkscape-font-specification:Manrope;text-align:start;writing-mode:lr-tb;direction:ltr;text-anchor:start;fill:#ffffff;fill-opacity:1;stroke-width:0.133851"
         x="37.237892"
         y="26.139246"
         id="text10"><tspan
           sodipodi:role="line"
           id="tspan10"
           style="fill:#ffffff;fill-opacity:1;stroke-width:0.133851"
           x="37.237892"
           y="26.139246">551m</tspan></text><g
         id="g3392"
         transform="matrix(0.03131454,0,0,0.03131454,37.71438,24.011549)"><rect
           style="fill:#05b20d;fill-opacity:1;stroke-width:0.131477"
           id="rect2430-4"
           width="67.468285"
           height="67.20266"
           x="135.59827"
           y="11.832917" /><text
           xml:space="preserve"
           style="font-style:normal;font-weight:normal;font-size:66.7456px;line-height:1.25;font-family:sans-serif;fill:#000000;fill-opacity:1;stroke:none;stroke-width:0.347634"
           x="135.03932"
           y="79.180351"
           id="text2434-76"><tspan
             sodipodi:role="line"
             id="tspan2432-76"
             x="135.03932"
             y="79.180351"
             style="font-style:normal;font-variant:normal;font-weight:normal;font-stretch:normal;font-size:66.7456px;font-family:'Material Icons';-inkscape-font-specification:'Material Icons';fill:#ffffff;fill-opacity:1;stroke-width:0.347634"></tspan></text></g></g><text
       xml:space="preserve"
       style="font-size:1.24698px;font-family:Manrope;-inkscape-font-specification:Manrope;text-align:start;writing-mode:lr-tb;direction:ltr;text-anchor:start;fill:#ffffff;fill-opacity:1;stroke-width:0.103915"
       x="36.099285"
       y="8.6356039"
       id="text13"
       sodipodi:insensitive="true"><tspan
         sodipodi:role="line"
         id="tspan13"
         style="fill:#ffffff;fill-opacity:1;stroke-width:0.103915"
         x="36.099285"
         y="8.6356039">Keeping you directional</tspan></text></g></svg>
