<?xml version="1.0" encoding="UTF-8" standalone="no"?>
<svg
   width="500.39999"
   height="500.39999"
   version="1.0"
   id="svg7"
   sodipodi:docname="Sweden_road_sign_E25_salmon.svg"
   inkscape:version="1.4.2 (ebf0e94, 2025-05-08)"
   xmlns:inkscape="http://www.inkscape.org/namespaces/inkscape"
   xmlns:sodipodi="http://sodipodi.sourceforge.net/DTD/sodipodi-0.dtd"
   xmlns="http://www.w3.org/2000/svg"
   xmlns:svg="http://www.w3.org/2000/svg">
  <defs
     id="defs7" />
  <sodipodi:namedview
     id="namedview7"
     pagecolor="#ffffff"
     bordercolor="#000000"
     borderopacity="0.25"
     inkscape:showpageshadow="2"
     inkscape:pageopacity="0.0"
     inkscape:pagecheckerboard="0"
     inkscape:deskcolor="#d1d1d1"
     inkscape:zoom="0.44664269"
     inkscape:cx="295.53825"
     inkscape:cy="404.12617"
     inkscape:window-width="1280"
     inkscape:window-height="649"
     inkscape:window-x="-8"
     inkscape:window-y="-8"
     inkscape:window-maximized="1"
     inkscape:current-layer="svg7" />
  <path
     d="M41.8563.2C18.8444.2.2 18.8443.2 41.8563v416.6875C.2 481.5558 18.8444 500.2 41.8563 500.2h416.6875c23.0119 0 41.6562-18.6442 41.6562-41.6562V41.8563C500.2 18.8443 481.5557.2 458.5438.2z"
     id="path1"
     style="fill:#ca3f3f;fill-opacity:1" />
  <path
     fill="#fff"
     d="M41.8556 21.0433c-11.5068 0-20.8126 9.3056-20.8126 20.8126v416.6888c0 11.5069 9.3058 20.8126 20.8126 20.8126h416.6888c11.5068 0 20.8126-9.3057 20.8126-20.8126V41.8559c0-11.507-9.3058-20.8126-20.8126-20.8126z"
     id="path2" />
  <path
     d="M287.7036 70.4689 408.4433 243.88l58.423 30.3419v184.3119c0 2.2107-.8774 4.3303-2.4414 5.8929-1.5626 1.5625-3.6822 2.4401-5.8914 2.4401H41.8671c-4.6036 0-8.3344-3.7293-8.3344-8.333V327.7853L212.6941 70.4689h75.0095z"
     id="path3"
     style="fill:#ca3f3f;fill-opacity:1" />
  <path
     fill="#fff"
     d="m290.0235 457.7513-3.541-38.5234c-27.5461 7.0689-56.3519-5.6106-69.7443-30.6976l-6.3632 69.221h79.6485zm167.7285 0V343.9892l-5.6033.042c-3.6807-.1117-7.2878-1.0554-10.551-2.7605l-59.3859-38.1441c8.6137 19.2661 6.7792 41.6013-4.8639 59.2036-11.6432 17.6006-31.4811 28.0282-52.5816 27.6386-6.8527 12.0548-17.5683 21.4475-30.4169 26.6642l71.9844 41.1178h91.4182zM185.2498 314.6072l30.3493 18.0872c-4.692 9.7264-6.7484 20.514-5.962 31.2841l-40.0609-24.1668c-2.7164-5.4136-2.4224-11.8489.7762-16.9922 3.1985-5.1431 8.84-8.252 14.8974-8.2123zm-9.497-18.806 45.6539 27.2256c6.3176-8.6195 14.7652-15.4473 24.5166-19.8188l-56.5915-32.8466c-7.8361-1.9035-15.8721 2.2784-18.8075 9.7896-2.2651 5.7944-.066 12.3825 5.2285 15.6502zm112.9949-16.7203-94.6622-54.9466c-7.8361-1.9021-15.8721 2.2813-18.8075 9.7896-2.2651 5.7958-.066 12.381 5.2285 15.6516l81.9283 48.8568c3.2647-.4645 6.5602-.6689 9.8558-.6085 4.1524-7.3041 9.7528-13.6819 16.4571-18.7429zm-54.4088-78.7577c-7.8346-1.9035-15.8705 2.2798-18.8074 9.7896-2.2666 5.7959-.065 12.3811 5.2299 15.6516l78.5975 46.8695c8.1345-3.8776 17.0201-5.9281 26.0291-6.0031l-34.4443-22.1236c-5.7753-3.2926-10.8759-7.6464-15.0299-12.8352-1.242-1.5522-2.0475-3.4102-2.3327-5.3799-.1587-1.1098-.2514-2.2299-.272-3.35l-38.9702-22.6189z"
     id="path4" />
  <path
     fill="#ffd100"
     d="M323.7094 359.4879c0-29.0278-23.5317-52.5595-52.5595-52.5595-29.0293 0-52.5625 23.5317-52.5625 52.5595 0 29.0277 23.5332 52.561 52.5625 52.561 29.0278 0 52.5595-23.5333 52.5595-52.561z"
     id="path5" />
  <path
     fill="#ffd100"
     d="M329.0364 380.7708c6.2721-17.0569 4.6993-36.0114-4.2936-51.8026-8.9929-15.7927-24.4946-26.8156-42.3628-30.1243 13.8127-20.4082 39.9506-28.481 62.8665-19.4146 22.9174 9.0694 36.4553 32.8407 32.563 57.178-3.8939 24.3344-24.1727 42.6965-48.7731 44.1635z"
     id="path6" />
  <path
     fill="#fff"
     d="M282.6034 224.9941c-.2322-1.6212-.2469-3.2661-.044-4.8933.072-.5615.2617-1.101.5615-1.5816l8.9018-11.333c1.2553-1.0495 2.787-1.708 4.4082-1.9006 2.7429-.3219 5.4945-.5776 8.2491-.7628 2.3799-.1633 4.7714.012 7.1042.5144 1.7388.3748 3.4439.8951 5.0976 1.5581L457.752 279.76v55.1143l-5.4798.041c-2.1299-.086-4.2186-.616-6.131-1.5597l-150.4849-96.6553c-4.8566-2.7341-9.1443-6.375-12.6265-10.7259-.2264-.2822-.3734-.6218-.4263-.9805zM244.0565 91.3404h12.287l-1.4905-16.2135h-9.306l-1.4905 16.2135zm-9.1722 99.7899c1.0201.178 2.0285.4175 3.0192.7203l29.2379 16.9731-3.8423-41.8042h-26.1982l-2.2166 24.1108zm5.1814-56.3616h20.27l-2.2827-24.8333h-15.706l-2.2813 24.8333z"
     id="path7" />
</svg>
