<?xml version="1.0" encoding="UTF-8" standalone="no"?>
<svg
   width="500.39999"
   height="500.39999"
   version="1.0"
   id="svg7"
   sodipodi:docname="Sweden_road_sign_E25_no_border_2.svg"
   inkscape:version="1.4.2 (ebf0e94, 2025-05-08)"
   xmlns:inkscape="http://www.inkscape.org/namespaces/inkscape"
   xmlns:sodipodi="http://sodipodi.sourceforge.net/DTD/sodipodi-0.dtd"
   xmlns="http://www.w3.org/2000/svg"
   xmlns:svg="http://www.w3.org/2000/svg">
  <defs
     id="defs7" />
  <sodipodi:namedview
     id="namedview7"
     pagecolor="#ffffff"
     bordercolor="#000000"
     borderopacity="0.25"
     inkscape:showpageshadow="2"
     inkscape:pageopacity="0.0"
     inkscape:pagecheckerboard="0"
     inkscape:deskcolor="#d1d1d1"
     inkscape:zoom="0.63164815"
     inkscape:cx="172.56442"
     inkscape:cy="217.68448"
     inkscape:window-width="1280"
     inkscape:window-height="649"
     inkscape:window-x="-8"
     inkscape:window-y="-8"
     inkscape:window-maximized="1"
     inkscape:current-layer="svg7" />
  <g
     id="g8"
     transform="matrix(1.0725406,0,0,1.0725406,-18.149661,-18.149983)">
    <path
       fill="#ffffff"
       d="m 41.8556,21.0433 c -11.5068,0 -20.8126,9.3056 -20.8126,20.8126 v 416.6888 c 0,11.5069 9.3058,20.8126 20.8126,20.8126 h 416.6888 c 11.5068,0 20.8126,-9.3057 20.8126,-20.8126 V 41.8559 c 0,-11.507 -9.3058,-20.8126 -20.8126,-20.8126 z"
       id="path2" />
    <path
       d="m 287.7036,70.4689 120.7397,173.4111 58.423,30.3419 v 184.3119 c 0,2.2107 -0.8774,4.3303 -2.4414,5.8929 -1.5626,1.5625 -3.6822,2.4401 -5.8914,2.4401 H 41.8671 c -4.6036,0 -8.3344,-3.7293 -8.3344,-8.333 V 327.7853 L 212.6941,70.4689 Z"
       id="path3"
       style="fill:#000000;fill-opacity:1" />
    <path
       fill="#ffffff"
       d="m 290.0235,457.7513 -3.541,-38.5234 c -27.5461,7.0689 -56.3519,-5.6106 -69.7443,-30.6976 l -6.3632,69.221 z m 167.7285,0 V 343.9892 l -5.6033,0.042 c -3.6807,-0.1117 -7.2878,-1.0554 -10.551,-2.7605 l -59.3859,-38.1441 c 8.6137,19.2661 6.7792,41.6013 -4.8639,59.2036 -11.6432,17.6006 -31.4811,28.0282 -52.5816,27.6386 -6.8527,12.0548 -17.5683,21.4475 -30.4169,26.6642 l 71.9844,41.1178 h 91.4182 z m -272.5022,-143.1441 30.3493,18.0872 c -4.692,9.7264 -6.7484,20.514 -5.962,31.2841 l -40.0609,-24.1668 c -2.7164,-5.4136 -2.4224,-11.8489 0.7762,-16.9922 3.1985,-5.1431 8.84,-8.252 14.8974,-8.2123 z m -9.497,-18.806 45.6539,27.2256 c 6.3176,-8.6195 14.7652,-15.4473 24.5166,-19.8188 l -56.5915,-32.8466 c -7.8361,-1.9035 -15.8721,2.2784 -18.8075,9.7896 -2.2651,5.7944 -0.066,12.3825 5.2285,15.6502 z m 112.9949,-16.7203 -94.6622,-54.9466 c -7.8361,-1.9021 -15.8721,2.2813 -18.8075,9.7896 -2.2651,5.7958 -0.066,12.381 5.2285,15.6516 l 81.9283,48.8568 c 3.2647,-0.4645 6.5602,-0.6689 9.8558,-0.6085 4.1524,-7.3041 9.7528,-13.6819 16.4571,-18.7429 z m -54.4088,-78.7577 c -7.8346,-1.9035 -15.8705,2.2798 -18.8074,9.7896 -2.2666,5.7959 -0.065,12.3811 5.2299,15.6516 l 78.5975,46.8695 c 8.1345,-3.8776 17.0201,-5.9281 26.0291,-6.0031 l -34.4443,-22.1236 c -5.7753,-3.2926 -10.8759,-7.6464 -15.0299,-12.8352 -1.242,-1.5522 -2.0475,-3.4102 -2.3327,-5.3799 -0.1587,-1.1098 -0.2514,-2.2299 -0.272,-3.35 z"
       id="path4" />
    <path
       fill="#ffd100"
       d="m 329.0364,380.7708 c 6.2721,-17.0569 4.6993,-36.0114 -4.2936,-51.8026 -8.9929,-15.7927 -24.4946,-26.8156 -42.3628,-30.1243 13.8127,-20.4082 39.9506,-28.481 62.8665,-19.4146 22.9174,9.0694 36.4553,32.8407 32.563,57.178 -3.8939,24.3344 -24.1727,42.6965 -48.7731,44.1635 z"
       id="path6" />
    <text
       xml:space="preserve"
       style="font-style:normal;font-variant:normal;font-weight:500;font-stretch:normal;font-size:87.0035px;line-height:1;font-family:Manrope;-inkscape-font-specification:'Manrope Medium';text-align:center;text-decoration-color:#000000;letter-spacing:0px;writing-mode:lr-tb;direction:ltr;text-anchor:middle;opacity:0.999;fill:#000000;fill-opacity:1;stroke-width:2.75125;-inkscape-stroke:none"
       x="330.42645"
       y="357.79916"
       id="text8"><tspan
         sodipodi:role="line"
         id="tspan8"
         x="330.42645"
         y="357.79916"
         style="stroke-width:2.75125">£</tspan></text>
    <path
       fill="#ffffff"
       d="m 282.6034,224.9941 c -0.2322,-1.6212 -0.2469,-3.2661 -0.044,-4.8933 0.072,-0.5615 0.2617,-1.101 0.5615,-1.5816 l 8.9018,-11.333 c 1.2553,-1.0495 2.787,-1.708 4.4082,-1.9006 2.7429,-0.3219 5.4945,-0.5776 8.2491,-0.7628 2.3799,-0.1633 4.7714,0.012 7.1042,0.5144 1.7388,0.3748 3.4439,0.8951 5.0976,1.5581 L 457.752,279.76 v 55.1143 l -5.4798,0.041 c -2.1299,-0.086 -4.2186,-0.616 -6.131,-1.5597 L 295.6563,236.7003 c -4.8566,-2.7341 -9.1443,-6.375 -12.6265,-10.7259 -0.2264,-0.2822 -0.3734,-0.6218 -0.4263,-0.9805 z M 244.0565,91.3404 h 12.287 L 254.853,75.1269 h -9.306 z m -9.1722,99.7899 c 1.0201,0.178 2.0285,0.4175 3.0192,0.7203 l 29.2379,16.9731 -3.8423,-41.8042 h -26.1982 z m 5.1814,-56.3616 h 20.27 l -2.2827,-24.8333 h -15.706 z"
       id="path7" />
    <path
       fill="#ffd100"
       d="m 323.7094,359.4879 c 0,-29.0278 -23.5317,-52.5595 -52.5595,-52.5595 -29.0293,0 -52.5625,23.5317 -52.5625,52.5595 0,29.0277 23.5332,52.561 52.5625,52.561 29.0278,0 52.5595,-23.5333 52.5595,-52.561 z"
       id="path5" />
    <text
       xml:space="preserve"
       style="font-style:normal;font-variant:normal;font-weight:500;font-stretch:normal;font-size:87.0035px;line-height:1;font-family:Manrope;-inkscape-font-specification:'Manrope Medium';text-align:center;text-decoration-color:#000000;letter-spacing:0px;writing-mode:lr-tb;direction:ltr;text-anchor:middle;opacity:0.999;fill:#000000;fill-opacity:1;stroke-width:2.75125;-inkscape-stroke:none"
       x="273.14832"
       y="389.46237"
       id="text7"><tspan
         sodipodi:role="line"
         id="tspan7"
         x="273.14832"
         y="389.46237"
         style="stroke-width:2.75125">£</tspan></text>
  </g>
</svg>
